<svg xmlns="http://www.w3.org/2000/svg" viewBox="0 0 184 66.31" id="logo">
  <path fill="var(--logo-color, #000000)" d="M3,19.45H6.29c0,.55,0,.74-.06,1.51,0,.12.06.15.17.15A5.51,5.51,0,0,0,7.35,21c.11,0,.15-.08.15-.19v-1.4h3.77c0,.43,0,.74-.08,1.51,0,.13.06.17.19.17.34,0,.87,0,1-.05s.11-.1.11-.21V19.45H18c.14,0,.19,0,.19-.1s0-.09-.11-.19c-.7-.58-.91-.77-1.69-1.36-.51.51-.66.68-1.17,1.21H12.46V17.89c.63-.18.76-.26.76-.39s-.11-.21-2-.42a6.25,6.25,0,0,1,.08,1.1V19H7.5V17.89c.61-.18.76-.26.76-.41s-.19-.21-1.1-.31c-.21,0-.53-.05-.93-.11a13.23,13.23,0,0,1,.08,1.61V19H3a8.07,8.07,0,0,1-1.68-.13l.13.7A9.38,9.38,0,0,1,3,19.45Z"/>
  <path fill="var(--logo-color, #000000)" d="M16.84,23.73c-.51.53-.67.68-1.16,1.25H14V22.25h3.39c.09,0,.15,0,.15-.08a.28.28,0,0,0-.06-.13c-.7-.62-.93-.79-1.65-1.38-.47.49-.62.66-1.09,1.16H3.83A7.8,7.8,0,0,1,2,21.66l.11.67a11.38,11.38,0,0,1,1.57-.08h1V25H2.33A7.38,7.38,0,0,1,.7,24.83l.11.68a10.14,10.14,0,0,1,1.46-.1H4.72v2.88H3.52A6.39,6.39,0,0,1,2,28.14l.09.68a13.71,13.71,0,0,1,1.42-.09h5.1v2.1H3.24a8.92,8.92,0,0,1-1.82-.13l.13.68a7.78,7.78,0,0,1,1.59-.11H8.62v.19c0,.66,0,2.14-.06,2.85,0,.12.06.16.17.16h.06s.21,0,.45,0c.55,0,.66-.08.66-.27,0-1,0-1.25,0-2.72v-.19h7.86c.09,0,.17,0,.17-.1a.23.23,0,0,0-.08-.13c-.74-.65-1-.83-1.74-1.44-.55.53-.7.7-1.23,1.23h-5v-2.1h7.48c.07,0,.17-.06.17-.12a.25.25,0,0,0-.08-.15c-.66-.57-.87-.76-1.57-1.34-.47.51-.63.66-1.08,1.17H14V25.41h4.49c.11,0,.17,0,.17-.09a.41.41,0,0,0,0-.12C17.86,24.54,17.63,24.35,16.84,23.73ZM8.62,28.29H5.91V25.41H8.62Zm0-3.31H5.91V22.25H8.62Zm4.14,3.31H9.89V25.41h2.87Zm0-3.31H9.89V22.25h2.87Z"/>
  <path fill="var(--logo-color, #000000)" d="M28.64,20.15a.56.56,0,0,0,.44-.29A1.59,1.59,0,0,0,29.4,19a1.15,1.15,0,0,0-.45-.72A9.07,9.07,0,0,0,27.11,17l-.21.17a8.24,8.24,0,0,1,1.31,2.28C28.44,20.11,28.46,20.15,28.64,20.15Z"/>
  <path fill="var(--logo-color, #000000)" d="M35.56,23.18c-.42.45-.42.45-1,1.08H31.54c.32-.61.49-1,.89-1.93.59,0,.87-.12.87-.29s-.09-.22-2-.66a9.83,9.83,0,0,1-.62,2.5A13.38,13.38,0,0,1,28.8,27.8L29,28a8.3,8.3,0,0,0,1.5-1.91,14.15,14.15,0,0,0,1.48,4,14.38,14.38,0,0,1-3,3.89l.15.26a13.42,13.42,0,0,0,3.41-3.31,10.71,10.71,0,0,0,3.16,3,2.46,2.46,0,0,1,.51-.85.9.9,0,0,1,.74-.38l0-.27A7,7,0,0,1,34.25,31a12.74,12.74,0,0,1-1.16-1,14.47,14.47,0,0,0,2-5.33h1.82c.23,0,.27,0,.27-.11a.29.29,0,0,0-.06-.15C36.45,23.86,36.24,23.71,35.56,23.18Zm-3.17,6a9.61,9.61,0,0,1-1.61-3.62c.25-.4.29-.47.53-.91h2.51A17.64,17.64,0,0,1,32.39,29.22Z"/>
  <path fill="var(--logo-color, #000000)" d="M21.75,29.11a21.86,21.86,0,0,0,.49-4.42h1.27v6.48a8.08,8.08,0,0,1-1.74.15c.36,1.56.45,1.84.66,1.84s.21-.15.29-.8a30.08,30.08,0,0,0,4.84-1.57l0,.25v1.15c0,.27,0,.4,0,1.71,0,.17.09.23.3.23H28c.59,0,.74-.06.74-.31,0-1.53,0-2.65,0-3.37V24.69h1.4c.1,0,.19-.07.19-.13s0-.07-.09-.15A12.93,12.93,0,0,0,29,23.35c-.36.38-.48.49-.86.91H26.6V22.69h2.84c.17,0,.25,0,.25-.12s0-.07-.06-.13c-.55-.47-.72-.62-1.29-1l-.78.85H24.25a7.34,7.34,0,0,1-1.67-.13l.17.66a2,2,0,0,1,.59-.06l.91,0h1.17v1.57H22.26c0-.91,0-.91.06-3.43H36.67c.16,0,.25,0,.25-.11a.36.36,0,0,0-.09-.19c-.76-.65-1-.84-1.73-1.44-.53.57-.7.74-1.21,1.3H31.2a15.06,15.06,0,0,0,2.27-2.27c.8-.09.91-.13.91-.32s-.05-.13-.19-.19a12.77,12.77,0,0,0-1.93-.47,10.43,10.43,0,0,1-1.59,3.25H22.6A13.3,13.3,0,0,0,21,19.45c0,1,.06,1.7.06,3.05a42.06,42.06,0,0,1-.41,7.19,17.58,17.58,0,0,1-1.05,4.19l.25.15A16,16,0,0,0,21.75,29.11Zm2.9-4.42h2.91v1.67H24.65Zm0,2.11h2.91v1.76H24.65Zm0,2.19h2.91v1.4a23.23,23.23,0,0,1-2.91.61Z"/>
  <path fill="var(--logo-color, #000000)" d="M24.86,20.22c.34,0,.64-.49.64-1a1,1,0,0,0-.49-.79,10.47,10.47,0,0,0-2-1.12l-.23.19a7.92,7.92,0,0,1,1.7,2.42C24.65,20.13,24.72,20.22,24.86,20.22Z"/>
  <path fill="var(--logo-color, #000000)" d="M55.83,19.77c-.68-.51-.91-.66-1.65-1.16-.38.44-.49.57-.85,1H47.91V17.93c.55-.13.86-.3.86-.45s-.08-.13-.23-.19A13.72,13.72,0,0,0,46.46,17a12.79,12.79,0,0,1,.11,1.37v1.23H41.25l0-1.23h-.35A4.85,4.85,0,0,1,40.49,20a3.65,3.65,0,0,1-1.27,1.6c-.26.21-.32.31-.32.5,0,.58.34,1.15.66,1.15s.7-.38,1-.85a4.94,4.94,0,0,0,.68-2.39h12.1a11.49,11.49,0,0,1-.51,2l.15.12a11.13,11.13,0,0,0,1.48-1.33l.36-.32c1.19-.15,1.36-.19,1.36-.38S56,19.88,55.83,19.77Z"/>
  <path fill="var(--logo-color, #000000)" d="M54,24.32c-.48.54-.63.73-1.1,1.34h-11a27.45,27.45,0,0,1-3-.21l.2.78c1.25-.1,1.88-.13,2.85-.13h4.94v6.23a.26.26,0,0,1-.27.3c-.89,0-1,0-2-.1s-1.08-.07-1.48-.07v.25l.83.17a5,5,0,0,1,1.59.43,1.08,1.08,0,0,1,.5,1,6.22,6.22,0,0,0,1.66-.46.86.86,0,0,0,.61-1c0-1,0-1,0-5.66V26.1h7.56c.08,0,.15,0,.15-.1a.17.17,0,0,0-.06-.11C55,25.17,54.75,25,54,24.32Z"/>
  <path fill="var(--logo-color, #000000)" d="M44.2,23.14h8.66c.07,0,.17-.06.17-.11a.22.22,0,0,0-.06-.14,18.74,18.74,0,0,0-1.63-1.45c-.45.53-.6.7-1.06,1.27H44.22a26.28,26.28,0,0,1-2.63-.14l.26.67A14.6,14.6,0,0,1,44.2,23.14Z"/>
  <path fill="var(--logo-color, #000000)" d="M43.86,28.71c.91-.13,1-.17,1-.32s-.76-.44-2.18-.78a6.93,6.93,0,0,1-1,2,17.21,17.21,0,0,1-2.88,3.52l.23.21A16.52,16.52,0,0,0,43.86,28.71Z"/>
  <path fill="var(--logo-color, #000000)" d="M53.75,32.38l.19.29c.11.22.17.26.3.26s.25-.09.34-.32a3.11,3.11,0,0,0,.28-1.17,1,1,0,0,0-.37-.86,14.55,14.55,0,0,0-4.06-2.91l-.15.17A18.27,18.27,0,0,1,52.93,31C53.73,32.33,53.73,32.33,53.75,32.38Z"/>
  <path fill="var(--logo-color, #000000)" d="M11.63,49.54a15.25,15.25,0,0,1-2.24-4.88h8a.19.19,0,0,0,.21-.17.31.31,0,0,0-.11-.17,22.05,22.05,0,0,0-1.88-1.6c-.49.63-.64.84-1.09,1.5H9.22c.1-1.12.14-1.85.21-4,.57-.19.82-.34.82-.53s-.15-.25-2.35-.46A8.92,8.92,0,0,1,8,40.49c0,1.15,0,2.61-.15,3.73H2.41a10,10,0,0,1-2-.15l.12.72a8.65,8.65,0,0,1,1.76-.13H7.82A12.85,12.85,0,0,1,3.5,53.31,18.29,18.29,0,0,1,0,55.72L.15,56a14.45,14.45,0,0,0,2.46-1.12A14.23,14.23,0,0,0,6.44,51.7,12.27,12.27,0,0,0,9.13,45a20.06,20.06,0,0,0,.93,3.2,16.42,16.42,0,0,0,3,5,12.33,12.33,0,0,0,3.23,2.67,1.68,1.68,0,0,1,1.73-1.27l0-.26a8.87,8.87,0,0,1-2.48-1.06A13.3,13.3,0,0,1,11.63,49.54Z"/>
  <path fill="var(--logo-color, #000000)" d="M30.78,46.68a10.35,10.35,0,0,1-2.21-3.48h7.69c.11,0,.21-.06.21-.13s0-.1-.12-.19a15.92,15.92,0,0,0-1.89-1.52c-.47.59-.61.78-1.08,1.4h-5V39.83c.7-.23.8-.29.8-.48s-.2-.26-1.12-.39c-.23,0-.57-.08-1-.14a15,15,0,0,1,.08,1.75v2.19H20.69a6.39,6.39,0,0,1-1.29-.19l.1.74a6.86,6.86,0,0,1,1.23-.11h5.89a20.85,20.85,0,0,1-2.48,4.26A24.1,24.1,0,0,1,18.82,53l.11.21a11.9,11.9,0,0,0,2.31-1.44,29.46,29.46,0,0,0,4.32-4.39,11.42,11.42,0,0,0,1.65-2.73l0,3.37v3.45H24.33a8.07,8.07,0,0,1-1.52-.15l.1.7a5,5,0,0,1,1.42-.12h2.86v.23c0,.06,0,.57,0,1.29,0,.19,0,.72,0,1.49l0,1c0,.18.08.24.27.24a9,9,0,0,0,.94-.06c.1,0,.12,0,.15-.18,0-1,0-1.1-.07-3.79v-.27h4.49c.09,0,.17,0,.17-.11a.26.26,0,0,0-.06-.15,14.43,14.43,0,0,0-1.72-1.44c-.44.51-.59.68-1,1.27H28.4V48l0-4.26a21.93,21.93,0,0,0,2.78,4.91,19.18,19.18,0,0,0,4.25,4.28A2,2,0,0,1,37,51.78v-.25a14.29,14.29,0,0,1-2.28-1.17A21.16,21.16,0,0,1,30.78,46.68Z"/>
  <path fill="var(--logo-color, #000000)" d="M53.67,43.08l-1-.13a12,12,0,0,1,.15,1.95v8.7H47.33l0-13.28c.73-.23.83-.27.83-.42s-.08-.15-.19-.21a9.13,9.13,0,0,0-2.08-.32c0,.53.05,1.65.05,2.22v12H40.79V43.84c.57-.19.68-.28.68-.43s-.22-.27-2-.53c.06,1.28.08,2.86.08,5.56,0,2.92,0,4.57-.1,7,0,.19.08.27.28.27h0a1.68,1.68,0,0,1,.36,0c.57,0,.68-.09.7-.36V54H52.84v1.5c0,.19.07.26.28.26h0a1.57,1.57,0,0,1,.34,0c.57,0,.68-.09.7-.36-.05-4-.07-4.86-.07-5.94l0-5.5c.59-.2.78-.32.78-.51S54.64,43.18,53.67,43.08Z"/>
  <path fill="var(--logo-color, #000000)" d="M98.21,41.76a.78.78,0,0,0-1-.12A2.85,2.85,0,0,0,96.61,43c0,.21-.54.39-.82.21s0-1,0-1.27a2.77,2.77,0,0,1,.58-1.42A3.81,3.81,0,0,0,97.18,39a1.91,1.91,0,0,0-.15-.88c-.09-.18-.36-.39-.45-.64s.24-.51.27-.75a8.3,8.3,0,0,0-.27-1.58,9.11,9.11,0,0,0-1-1.9c-.51-.79-2-3.48-2.33-4.15s-1.91-4.2-2.33-5.05S89.47,20.43,89.23,20s0-.63.15-.69,1-.33,1.33-.43,1.6-.21,2-.24a4.73,4.73,0,0,0,1.69-.51c.39-.27,2.12-.7,2.42-.88A12.57,12.57,0,0,1,99,16.4c.33,0,.76-.24.79-.42a1.11,1.11,0,0,0-.37-.76,13.07,13.07,0,0,0-1.81-.84c-.46-.19-1.7-.79-2.21-.94A26,26,0,0,0,92,13.2a14.06,14.06,0,0,0-2.5.21c-.6.15-1.25.27-1.61.39a12.89,12.89,0,0,0-1.4.88c-.18.09-.45-.06-.54-.12s-.49-.37-1-.7A2,2,0,0,0,84,13.5s.09-.85.09-1.51.15-3.24.15-4.45,0-3.24-.06-3.45-.18-.82-.33-1.42a13,13,0,0,0-1.3-2.3c-.3-.52-.39-.46-.7,0a7.26,7.26,0,0,0-1,1.36,6.41,6.41,0,0,0-.55,2.57c0,.91.09,4.05.09,4.78s-.3,3.18-.3,3.18-.7.12-1.06.21-.42.67-.73.82a1.12,1.12,0,0,1-.9-.06c-.15-.09-.88-.7-1.34-1.06s-3.17-2.21-3.63-2.57a33.75,33.75,0,0,0-2.84-1.91c-.24-.09-.45,0-.51.45a11,11,0,0,1-.31,2.36.51.51,0,0,1-.54.12c-.21,0-.27.28-.31,1.15a5.75,5.75,0,0,0,1.25,2.79,37,37,0,0,0,3.72,3.27c.92.74,1.74,1.46,1.74,1.46s-1.86,4.71-2.89,7-3.63,8-4.48,9.68a26.74,26.74,0,0,0-2.48,6.7,14.64,14.64,0,0,0,0,5.55,10.08,10.08,0,0,0,2,3.7,32.13,32.13,0,0,0,3,2.78s-.59,4-.69,5.17a9.59,9.59,0,0,0,.31,3.45A6.87,6.87,0,0,0,72,66.12a1.11,1.11,0,0,0,1.6-.37,2.14,2.14,0,0,0,.34-1.54c0-.24,0-1.15.06-1.72s.12-2.82.18-3.94.21-2.42.21-2.42a23,23,0,0,0,3.24.85c1.13.18,3,.27,3,.27s.21,1.64.36,2.18a10.13,10.13,0,0,1,.14,2.42,7.82,7.82,0,0,0,.06,2.27c.18.27,1.27.36,1.48.33a9.91,9.91,0,0,0,2.18-.75c.27-.24,1.36-1,1.51-1.85A5.69,5.69,0,0,0,85.9,59a9.2,9.2,0,0,1-.52-3s1.7-.27,2.06-.3a7,7,0,0,0,1.79-.33,13.3,13.3,0,0,0,2.42-1.73c.18-.3,1.9-1.42,2.42-2a14.61,14.61,0,0,0,2.12-2.78c.27-.73,1.57-3.24,2-4.6A3.16,3.16,0,0,0,98.21,41.76Zm-18.94,8.5c-.48.12-.66.67-.94,1.06s-.66.85-.84.82-.46-.58-.52-.73a3.15,3.15,0,0,1-.39-1c0-.3-.18-.42-.67-.45s-1.25-.27-1.48-.27a10.38,10.38,0,0,1-1.86-.5A5.8,5.8,0,0,1,70.94,48a17.18,17.18,0,0,1-1.68-2.54,2.86,2.86,0,0,1-.05-1.63,12,12,0,0,1,.45-1.55,22,22,0,0,0,1.09-2.17c.19-.55,1.37-2.86,1.59-3.54s.68-1.68,1-2.59,1.86-5.22,2-5.81,1.59-3.41,1.72-3.63.59-.82.77-1.18l.78-1.5,1,.68v7.85c0,1.14-.09,8-.09,8s-1.36.09-1.91.09a6.38,6.38,0,0,0-2.18.63,3.69,3.69,0,0,0-1.9,2.45c0,1,.18,2.27.82,2.68a6.33,6.33,0,0,0,2.58.36,17.17,17.17,0,0,0,2.73-.45l.18-.06a4.53,4.53,0,0,1,.33,1.27c0,.58.27,4.6.27,4.6S79.76,50.14,79.27,50.26ZM84.19,23s-.14-.68.36,0,3.22,6.21,3.72,7.17,1,2,1.41,2.67a4.34,4.34,0,0,1,.54,1.5c0,.32.69.64.73.86s-.09.59.23,1a6.65,6.65,0,0,1,.72,1.27,1.26,1.26,0,0,0,.14.63c.18.46.82.82.91,1.09A11.23,11.23,0,0,1,93,40.82v.55A15.51,15.51,0,0,0,91.59,40a3.66,3.66,0,0,0-1.86-.45c-.28,0-.87.27-1.14.27s-1.27-.32-2-.41-2.32-.5-2.32-.5Zm8.35,22.15a2.69,2.69,0,0,1-1,.91,2.68,2.68,0,0,0-.87,1.45,2.36,2.36,0,0,1-.4,1.32c-.37.54-.78,1-1.23,1s-.54-.36-.86-.45a13.53,13.53,0,0,0-1.91,0H84.69l-.09-.32-.09-5.22a25.5,25.5,0,0,1,3.17,0,16,16,0,0,0,3.77.37,2.23,2.23,0,0,0,1.41-.87l.27-.31s.05.59.05.86A5.41,5.41,0,0,1,92.54,45.18Z"/>
  <path fill="var(--logo-color, #000000)" d="M99.55,55.08c-.17-.27-1-.9-1.2-.86s-.81.62-1.08,1a5.48,5.48,0,0,0-1,2.33,8.59,8.59,0,0,0,.14,1.79,5.42,5.42,0,0,0,1,1.78,1,1,0,0,0,1,.44,3.22,3.22,0,0,0,1.33-.76,4.4,4.4,0,0,0,.53-1.3c0-.27,0-2.22,0-2.59A8.46,8.46,0,0,0,99.55,55.08Z"/>
  <path fill="var(--logo-color, #000000)" d="M145.08,53.38c-.21,0-.33.18-.51.24a2,2,0,0,1-.85,0c-.15-.06-.42-.67-.66-.67s-.22.13-.25.31-.39.27-.54.27-.79-.06-1-.06a2.13,2.13,0,0,1-1-.27.9.9,0,0,1-.18-.46A.82.82,0,0,0,140,52a12,12,0,0,0-1.69-1.15c-.37-.24-1.76-1-2-1.15s-3.33-2.09-3.57-2.27-.82-.58-1-.67.15-.3-.09-.57A11.4,11.4,0,0,0,130.53,45a10.74,10.74,0,0,0-1.63-.79s.06-.67.06-1,0-1.33-.09-2a17.44,17.44,0,0,0-.52-2.91c-.24-.7-1.06-2.9-1.06-2.9l.18-.07s2.57.07,3.24.13,3.24,0,3.87.06,3.54.39,3.91.39.45.36,1.09.48a3.4,3.4,0,0,0,1.69-.15,2.29,2.29,0,0,0,.82-1.36,4.19,4.19,0,0,1,.15-1.18c.12-.27.6-.51,1-.79s1-1,1.13-1,0-.39-.25-.55-1-1.31-1.54-1.72a17.89,17.89,0,0,0-2-1.48,6.64,6.64,0,0,0-2.51-.22l-6.06.07h-6.24a3.62,3.62,0,0,1-.1-.55c0-.29-.31-2.54-.43-3.36s-.52-2.81-.65-3.4-.73-3.27-.8-3.63-.41-2.95-.5-3.47-.75-2-.77-2.14a8,8,0,0,1,.21-1.09A2.22,2.22,0,0,0,122.56,9a2.73,2.73,0,0,0-1.63-.38,1.77,1.77,0,0,0-1.25.77,2.3,2.3,0,0,0,.16,1.45,5.48,5.48,0,0,0,1,.89s.07,1.18,0,1.73a10.55,10.55,0,0,0,.09,1.94c.08.46.33,1.18.42,1.63s.09,2,.21,2.69a11.16,11.16,0,0,0,.61,1.85s.09.57.18,1.06.3,2,.39,2.78.06,2.81.06,2.81l-7.2.37a21.37,21.37,0,0,0-2.48.42c-.33.12-1.84,1.06-2.57,1.42a4.84,4.84,0,0,0-1.64,1.7c-.24.42-.45,1.15-.69,1.54a8.19,8.19,0,0,0-.85,1.57,5.46,5.46,0,0,0,.61,1.73,2,2,0,0,0,1.45.94c.27,0,.45-.37.73-.43s.78-.3,1.12-.36,1.39-.21,2.05-.36,2.15-.15,3-.28,4.17-.39,4.57-.39,2.69-.18,2.69-.18.27.82.39,1.15a4.57,4.57,0,0,1,.37,1.3,14.38,14.38,0,0,1-.73,3.81,11.18,11.18,0,0,1-1.85,3.09,16.19,16.19,0,0,1-2.72,2.48c-.42.27-2.48,1.57-2.87,1.76s-.85.48-.94.87a12.16,12.16,0,0,0,0,1.82c0,.15-1.12.57-1.45.75s-.67.1-.73.73.7,1.51,1.21,2a2.18,2.18,0,0,0,1.6.72,1.07,1.07,0,0,0,1.06-.6c.22-.27.88-.39,1.06-.49a13,13,0,0,1,2-.54,11.3,11.3,0,0,0,2.6-1.57,35.7,35.7,0,0,0,2.91-2.45l.21.06s.76.45,1.3.75,1.12.76,1.75,1.21a20.83,20.83,0,0,0,2.73,1c.75.36,2.9,1.24,3.42,1.42s1.81.58,1.81.58,1,.51,1.36.73a2.73,2.73,0,0,0,.88.27l.85.21a4.27,4.27,0,0,1,.66.42,2,2,0,0,0,1.18,0,2,2,0,0,1,.7-.12c.21,0,.33.27.42.42s.52.19.79.1a3.92,3.92,0,0,0,.82-.4,1.94,1.94,0,0,0,.36-.84c0-.22.24-.13.48-.4a1.69,1.69,0,0,0,.4-1.42C145.54,54.14,145.29,53.41,145.08,53.38Z"/>
  <path fill="var(--logo-color, #000000)" d="M184,33.26c0-.21-.1-1.84-.17-2.11a10.91,10.91,0,0,1-.08-1.9,1.24,1.24,0,0,0-.31-1,3,3,0,0,0-1.44-.32c-.34,0-1.7.1-2.18.13s-1.76.38-2.61.41-3.74-.05-4.47-.07-3-.22-3-.22-.07-.83,0-1.17a11.33,11.33,0,0,0-.09-1.63c-.05-.19-.34-.85-.34-.85s.07-1.31.17-1.82.41-2.12.53-2.78a26.59,26.59,0,0,0,.34-2.92,15.75,15.75,0,0,0,0-1.7s1.85-.14,2-.14a7.64,7.64,0,0,1,1,.36,2.82,2.82,0,0,0,1.58.07,1.64,1.64,0,0,0,1.14-1,3.15,3.15,0,0,0,.22-1.24,3.46,3.46,0,0,0-.39-1.43,20.42,20.42,0,0,0-1.79-2.83A3.86,3.86,0,0,0,171.71,8a16.22,16.22,0,0,0-2.68-.2l-.9-1.65A1.73,1.73,0,0,0,167,5.27c-.46,0-.63.63-.85,1.56a7.23,7.23,0,0,0-.2,1.77s-1.12.44-1.41.54-1.33.51-2.14.87a8.09,8.09,0,0,0-2.48,2.24c-.34.59-1.7,2.94-1.87,3.31a1.07,1.07,0,0,0,.12,1.12,4.16,4.16,0,0,0,1.49.41c.34,0,2-.22,2.55-.29a12.2,12.2,0,0,0,2.26-.61c.56-.22,2.09-.58,2.09-.58s-.05,9.68-.05,10.21a7.13,7.13,0,0,1-.26,1.56,3.64,3.64,0,0,1-.47.87s-2-.05-2.4,0-.44.22-.54.46a5.22,5.22,0,0,0-.27,1c0,.27-.41,1.12-.41,1.43a3.07,3.07,0,0,0,.41,1.73,6.53,6.53,0,0,0,1.71,1.9,14.31,14.31,0,0,0,2.87,1.11c.77.13,4.37.25,4.69.25s3.65-.1,4.47-.07a27.36,27.36,0,0,0,3.65-.44,25,25,0,0,0,2.46-.66c.34-.12,1.26-.36,1.43-.68A2.17,2.17,0,0,0,184,33.26Z"/>
  <path fill="var(--logo-color, #000000)" d="M177.59,41.85s-1.48-1.78-1.75-2.07a4.55,4.55,0,0,0-1.09-.92c-.25-.07-1.53-.15-1.53-.15a9.4,9.4,0,0,1-.27-.94,5.3,5.3,0,0,0-1-1.22c-.21-.2-1.19-.17-1.43-.15s-.46.34-.53.78a10.23,10.23,0,0,0,0,1.65l-2.17,0a11.67,11.67,0,0,0-1.92.1,5,5,0,0,0-1.19.73,5.49,5.49,0,0,1-1.48.87.32.32,0,0,1-.41-.29c0-.17-.61-.56-.93-.66a7.56,7.56,0,0,0-1.53-.29c-.41,0-1.56,0-2.46,0s-2.36.15-2.72.15a12.72,12.72,0,0,0-2.34.44,2.64,2.64,0,0,0-1.11.8,25.08,25.08,0,0,0-1.12,2.26,2.51,2.51,0,0,0-.1,1.39c.07.34.78.7,1,.82a8.23,8.23,0,0,0,1.41.61c.26,0,2.16.27,2.79.27l4.36.05c.85,0,5.52,0,6.17,0l4.53-.15v2.68c0,.31-.2,2.14-.32,3a39.56,39.56,0,0,0-.19,4,2.87,2.87,0,0,1-.32,1.28c-.12.27-.32,1.15-.44,1.39s-.58.66-.7.88a10.66,10.66,0,0,0-.37,1.48,4.86,4.86,0,0,0,0,1.31,1.49,1.49,0,0,0,.68.9,7,7,0,0,0,1.75,0c.51-.08.93-.69,1.36-1.54a19.4,19.4,0,0,0,1.37-4.71c.19-1.51.36-3,.43-4.11s.42-3.29.49-3.77,0-2.7,0-2.7L176,46a1.91,1.91,0,0,0,1-.51A3.33,3.33,0,0,1,178.3,45a.73.73,0,0,0,.53-.68,5.24,5.24,0,0,1,.12-1c.08-.24.08-.83-.09-.95A10.94,10.94,0,0,0,177.59,41.85Z"/>
  <path fill="var(--logo-color, #000000)" d="M164.82,51.12A28.9,28.9,0,0,1,163,48.88a1.35,1.35,0,0,0-1.17-.61,2.93,2.93,0,0,0-1.46.75,4.53,4.53,0,0,0-1,2.46l0-.1a4.55,4.55,0,0,0,.1.93,5,5,0,0,0,.68,1.34,12.71,12.71,0,0,0,1.58,1.92,3.23,3.23,0,0,0,1.56.68,3.44,3.44,0,0,0,1.85-.54,3.22,3.22,0,0,0,1.21-1.94,2.25,2.25,0,0,0-.36-1.29A9.53,9.53,0,0,0,164.82,51.12Z"/>
</svg>
